<mxfile host="app.diagrams.net" modified="2022-09-22T01:17:26.286Z" agent="5.0 (Windows NT 10.0; Win64; x64) AppleWebKit/537.36 (KHTML, like Gecko) Chrome/105.0.0.0 Safari/537.36" etag="UXwODDOymF95brnYkavw" version="20.3.3" type="github">
  <diagram id="aY0opfim-5GvieNI9Tqu" name="第 1 页">
    <mxGraphModel dx="2062" dy="1122" grid="1" gridSize="10" guides="1" tooltips="1" connect="1" arrows="1" fold="1" page="1" pageScale="1" pageWidth="1100" pageHeight="850" math="0" shadow="0">
      <root>
        <mxCell id="0" />
        <mxCell id="1" parent="0" />
        <mxCell id="nOYpQQgfcAsNFbJ2w3sx-1" value="&lt;br style=&quot;font-size: 14px;&quot;&gt;监控&amp;amp;保护" style="rounded=0;whiteSpace=wrap;html=1;dashed=1;strokeWidth=2;fillColor=none;verticalAlign=top;fontSize=14;fontStyle=1" vertex="1" parent="1">
          <mxGeometry x="60" y="180" width="110" height="470" as="geometry" />
        </mxCell>
        <mxCell id="nOYpQQgfcAsNFbJ2w3sx-2" value="" style="rounded=0;whiteSpace=wrap;html=1;dashed=1;strokeWidth=2;fillColor=none;" vertex="1" parent="1">
          <mxGeometry x="324" y="50" width="520" height="80" as="geometry" />
        </mxCell>
        <mxCell id="nOYpQQgfcAsNFbJ2w3sx-3" value="" style="rounded=0;whiteSpace=wrap;html=1;dashed=1;strokeWidth=2;fillColor=none;" vertex="1" parent="1">
          <mxGeometry x="190" y="560" width="780" height="90" as="geometry" />
        </mxCell>
        <mxCell id="nOYpQQgfcAsNFbJ2w3sx-4" value="&lt;br&gt;治理&amp;amp;配置" style="rounded=0;whiteSpace=wrap;html=1;dashed=1;strokeWidth=2;fillColor=none;verticalAlign=top;fontStyle=1" vertex="1" parent="1">
          <mxGeometry x="990" y="180" width="110" height="470" as="geometry" />
        </mxCell>
        <mxCell id="nOYpQQgfcAsNFbJ2w3sx-5" value="" style="rounded=0;whiteSpace=wrap;html=1;dashed=1;strokeWidth=2;fillColor=none;" vertex="1" parent="1">
          <mxGeometry x="210" y="178" width="740" height="80" as="geometry" />
        </mxCell>
        <mxCell id="nOYpQQgfcAsNFbJ2w3sx-6" value="　数据层" style="rounded=0;whiteSpace=wrap;html=1;dashed=1;strokeWidth=2;fillColor=none;align=left;fontSize=14;fontStyle=1" vertex="1" parent="1">
          <mxGeometry x="60" y="690" width="1040" height="100" as="geometry" />
        </mxCell>
        <mxCell id="nOYpQQgfcAsNFbJ2w3sx-7" value="" style="rounded=0;whiteSpace=wrap;html=1;dashed=1;strokeWidth=2;fillColor=none;" vertex="1" parent="1">
          <mxGeometry x="210" y="290" width="740" height="240" as="geometry" />
        </mxCell>
        <mxCell id="nOYpQQgfcAsNFbJ2w3sx-8" value="业务服务群" style="rounded=0;whiteSpace=wrap;html=1;dashed=1;strokeWidth=2;fillColor=none;verticalAlign=top;fontSize=14;fontStyle=1" vertex="1" parent="1">
          <mxGeometry x="234" y="309.5" width="200" height="200" as="geometry" />
        </mxCell>
        <mxCell id="nOYpQQgfcAsNFbJ2w3sx-9" value="业务服务群" style="rounded=0;whiteSpace=wrap;html=1;dashed=1;strokeWidth=2;fillColor=none;verticalAlign=top;fontSize=14;fontStyle=1" vertex="1" parent="1">
          <mxGeometry x="476" y="308.5" width="200" height="200" as="geometry" />
        </mxCell>
        <mxCell id="nOYpQQgfcAsNFbJ2w3sx-10" value="业务服务群" style="rounded=0;whiteSpace=wrap;html=1;dashed=1;strokeWidth=2;fillColor=none;verticalAlign=top;fontSize=14;fontStyle=1" vertex="1" parent="1">
          <mxGeometry x="717" y="308.5" width="200" height="200" as="geometry" />
        </mxCell>
        <mxCell id="nOYpQQgfcAsNFbJ2w3sx-11" value="Sleuth&lt;br&gt;链路跟踪" style="rounded=0;whiteSpace=wrap;html=1;dashed=1;strokeWidth=2;fillColor=#00B300;fontSize=14;strokeColor=none;fontColor=#FFFFFF;" vertex="1" parent="1">
          <mxGeometry x="70" y="254.5" width="90" height="90" as="geometry" />
        </mxCell>
        <mxCell id="nOYpQQgfcAsNFbJ2w3sx-12" value="Turbine&lt;br&gt;集群监控" style="rounded=0;whiteSpace=wrap;html=1;dashed=1;strokeWidth=2;fillColor=#00B300;fontSize=14;strokeColor=none;fontColor=#FFFFFF;" vertex="1" parent="1">
          <mxGeometry x="70" y="377" width="90" height="90" as="geometry" />
        </mxCell>
        <mxCell id="nOYpQQgfcAsNFbJ2w3sx-13" value="Hystrix&lt;br&gt;容错保护" style="rounded=0;whiteSpace=wrap;html=1;dashed=1;strokeWidth=2;fillColor=#00B300;fontSize=14;strokeColor=none;fontColor=#FFFFFF;" vertex="1" parent="1">
          <mxGeometry x="70" y="500.5" width="90" height="90" as="geometry" />
        </mxCell>
        <mxCell id="nOYpQQgfcAsNFbJ2w3sx-14" value="Service&amp;nbsp;A" style="rounded=0;whiteSpace=wrap;html=1;dashed=1;strokeWidth=2;fillColor=#003B00;fontSize=14;fontColor=#FFFFFF;strokeColor=none;" vertex="1" parent="1">
          <mxGeometry x="249.5" y="344" width="170" height="46" as="geometry" />
        </mxCell>
        <mxCell id="nOYpQQgfcAsNFbJ2w3sx-15" value="Service&amp;nbsp;A" style="rounded=0;whiteSpace=wrap;html=1;dashed=1;strokeWidth=2;fillColor=#003B00;fontSize=14;fontColor=#FFFFFF;strokeColor=none;" vertex="1" parent="1">
          <mxGeometry x="248.5" y="399" width="170" height="46" as="geometry" />
        </mxCell>
        <mxCell id="nOYpQQgfcAsNFbJ2w3sx-16" value="Service&amp;nbsp;A" style="rounded=0;whiteSpace=wrap;html=1;dashed=1;strokeWidth=2;fillColor=#003B00;fontSize=14;fontColor=#FFFFFF;strokeColor=none;" vertex="1" parent="1">
          <mxGeometry x="249.5" y="453.5" width="170" height="46" as="geometry" />
        </mxCell>
        <mxCell id="nOYpQQgfcAsNFbJ2w3sx-17" value="Service&amp;nbsp;A" style="rounded=0;whiteSpace=wrap;html=1;dashed=1;strokeWidth=2;fillColor=#003B00;fontSize=14;fontColor=#FFFFFF;strokeColor=none;" vertex="1" parent="1">
          <mxGeometry x="491.5" y="453.5" width="170" height="46" as="geometry" />
        </mxCell>
        <mxCell id="nOYpQQgfcAsNFbJ2w3sx-18" value="Service&amp;nbsp;A" style="rounded=0;whiteSpace=wrap;html=1;dashed=1;strokeWidth=2;fillColor=#003B00;fontSize=14;fontColor=#FFFFFF;strokeColor=none;" vertex="1" parent="1">
          <mxGeometry x="490.5" y="399" width="170" height="46" as="geometry" />
        </mxCell>
        <mxCell id="nOYpQQgfcAsNFbJ2w3sx-19" value="Service&amp;nbsp;A" style="rounded=0;whiteSpace=wrap;html=1;dashed=1;strokeWidth=2;fillColor=#003B00;fontSize=14;fontColor=#FFFFFF;strokeColor=none;" vertex="1" parent="1">
          <mxGeometry x="491.5" y="344" width="170" height="46" as="geometry" />
        </mxCell>
        <mxCell id="nOYpQQgfcAsNFbJ2w3sx-20" value="Service&amp;nbsp;A" style="rounded=0;whiteSpace=wrap;html=1;dashed=1;strokeWidth=2;fillColor=#003B00;fontSize=14;fontColor=#FFFFFF;strokeColor=none;" vertex="1" parent="1">
          <mxGeometry x="732.5" y="453.5" width="170" height="46" as="geometry" />
        </mxCell>
        <mxCell id="nOYpQQgfcAsNFbJ2w3sx-21" value="Service&amp;nbsp;A" style="rounded=0;whiteSpace=wrap;html=1;dashed=1;strokeWidth=2;fillColor=#003B00;fontSize=14;fontColor=#FFFFFF;strokeColor=none;" vertex="1" parent="1">
          <mxGeometry x="731.5" y="399" width="170" height="46" as="geometry" />
        </mxCell>
        <mxCell id="nOYpQQgfcAsNFbJ2w3sx-22" value="Service&amp;nbsp;A" style="rounded=0;whiteSpace=wrap;html=1;dashed=1;strokeWidth=2;fillColor=#003B00;fontSize=14;fontColor=#FFFFFF;strokeColor=none;" vertex="1" parent="1">
          <mxGeometry x="732.5" y="344" width="170" height="46" as="geometry" />
        </mxCell>
        <mxCell id="nOYpQQgfcAsNFbJ2w3sx-23" value="Zuul&lt;br&gt;服务网关" style="rounded=0;whiteSpace=wrap;html=1;dashed=1;strokeWidth=2;fillColor=#63BDEB;fontSize=14;fontColor=#FFFFFF;strokeColor=none;" vertex="1" parent="1">
          <mxGeometry x="240" y="192" width="210" height="52" as="geometry" />
        </mxCell>
        <mxCell id="nOYpQQgfcAsNFbJ2w3sx-24" value="Zuul&lt;br&gt;服务网关" style="rounded=0;whiteSpace=wrap;html=1;dashed=1;strokeWidth=2;fillColor=#63BDEB;fontSize=14;fontColor=#FFFFFF;strokeColor=none;" vertex="1" parent="1">
          <mxGeometry x="479" y="192" width="210" height="52" as="geometry" />
        </mxCell>
        <mxCell id="nOYpQQgfcAsNFbJ2w3sx-25" value="Zuul&lt;br&gt;服务网关" style="rounded=0;whiteSpace=wrap;html=1;dashed=1;strokeWidth=2;fillColor=#63BDEB;fontSize=14;fontColor=#FFFFFF;strokeColor=none;" vertex="1" parent="1">
          <mxGeometry x="717" y="192" width="210" height="52" as="geometry" />
        </mxCell>
        <mxCell id="nOYpQQgfcAsNFbJ2w3sx-26" value="Nginx&lt;br&gt;负载均衡" style="rounded=0;whiteSpace=wrap;html=1;dashed=1;strokeWidth=2;fillColor=#63BDEB;fontSize=14;fontColor=#FFFFFF;strokeColor=none;" vertex="1" parent="1">
          <mxGeometry x="341" y="67" width="130" height="46" as="geometry" />
        </mxCell>
        <mxCell id="nOYpQQgfcAsNFbJ2w3sx-27" value="Nginx&lt;br&gt;负载均衡" style="rounded=0;whiteSpace=wrap;html=1;dashed=1;strokeWidth=2;fillColor=#63BDEB;fontSize=14;fontColor=#FFFFFF;strokeColor=none;" vertex="1" parent="1">
          <mxGeometry x="519" y="67" width="130" height="46" as="geometry" />
        </mxCell>
        <mxCell id="nOYpQQgfcAsNFbJ2w3sx-28" value="Nginx&lt;br&gt;负载均衡" style="rounded=0;whiteSpace=wrap;html=1;dashed=1;strokeWidth=2;fillColor=#63BDEB;fontSize=14;fontColor=#FFFFFF;strokeColor=none;" vertex="1" parent="1">
          <mxGeometry x="697" y="67" width="130" height="46" as="geometry" />
        </mxCell>
        <mxCell id="nOYpQQgfcAsNFbJ2w3sx-29" value="Spring&amp;nbsp;Cloud&amp;nbsp;Bus&lt;br&gt;消息总线" style="rounded=0;whiteSpace=wrap;html=1;dashed=1;strokeWidth=2;fillColor=#18C9A6;fontSize=14;fontColor=#FFFFFF;strokeColor=none;" vertex="1" parent="1">
          <mxGeometry x="205" y="575" width="170" height="60" as="geometry" />
        </mxCell>
        <mxCell id="nOYpQQgfcAsNFbJ2w3sx-30" value="Spring&amp;nbsp;Cloud&amp;nbsp;Task&lt;br&gt;任务调度" style="rounded=0;whiteSpace=wrap;html=1;dashed=1;strokeWidth=2;fillColor=#18C9A6;fontSize=14;fontColor=#FFFFFF;strokeColor=none;" vertex="1" parent="1">
          <mxGeometry x="398" y="575" width="170" height="60" as="geometry" />
        </mxCell>
        <mxCell id="nOYpQQgfcAsNFbJ2w3sx-31" value="Spring&amp;nbsp;Cloud&amp;nbsp;Data&amp;nbsp;Flow&lt;br&gt;大数据操作" style="rounded=0;whiteSpace=wrap;html=1;dashed=1;strokeWidth=2;fillColor=#18C9A6;fontSize=14;fontColor=#FFFFFF;strokeColor=none;" vertex="1" parent="1">
          <mxGeometry x="592" y="575" width="170" height="60" as="geometry" />
        </mxCell>
        <mxCell id="nOYpQQgfcAsNFbJ2w3sx-32" value="Spring&amp;nbsp;Cloud&amp;nbsp;Stream&lt;br&gt;数据流操作" style="rounded=0;whiteSpace=wrap;html=1;dashed=1;strokeWidth=2;fillColor=#18C9A6;fontSize=14;fontColor=#FFFFFF;strokeColor=none;" vertex="1" parent="1">
          <mxGeometry x="785" y="575" width="170" height="60" as="geometry" />
        </mxCell>
        <mxCell id="nOYpQQgfcAsNFbJ2w3sx-33" value="consul&lt;br&gt;服务治理" style="rounded=0;whiteSpace=wrap;html=1;dashed=1;strokeWidth=2;fillColor=#00B300;fontSize=14;strokeColor=none;fontColor=#FFFFFF;" vertex="1" parent="1">
          <mxGeometry x="1000" y="254" width="90" height="90" as="geometry" />
        </mxCell>
        <mxCell id="nOYpQQgfcAsNFbJ2w3sx-34" value="Eureka&lt;br&gt;服务治理" style="rounded=0;whiteSpace=wrap;html=1;dashed=1;strokeWidth=2;fillColor=#00B300;fontSize=14;strokeColor=none;fontColor=#FFFFFF;" vertex="1" parent="1">
          <mxGeometry x="1000" y="376.5" width="90" height="90" as="geometry" />
        </mxCell>
        <mxCell id="nOYpQQgfcAsNFbJ2w3sx-35" value="Config&lt;br&gt;配置管理" style="rounded=0;whiteSpace=wrap;html=1;dashed=1;strokeWidth=2;fillColor=#00B300;fontSize=14;strokeColor=none;fontColor=#FFFFFF;" vertex="1" parent="1">
          <mxGeometry x="1000" y="500" width="90" height="90" as="geometry" />
        </mxCell>
        <mxCell id="nOYpQQgfcAsNFbJ2w3sx-36" value="" style="group" vertex="1" connectable="0" parent="1">
          <mxGeometry x="955" y="700" width="120" height="80" as="geometry" />
        </mxCell>
        <mxCell id="nOYpQQgfcAsNFbJ2w3sx-37" value="Git" style="shape=datastore;whiteSpace=wrap;html=1;strokeWidth=1;fillColor=#ED6D18;fontSize=14;fontColor=#FFFFFF;verticalAlign=top;" vertex="1" parent="nOYpQQgfcAsNFbJ2w3sx-36">
          <mxGeometry x="60" width="60" height="80" as="geometry" />
        </mxCell>
        <mxCell id="nOYpQQgfcAsNFbJ2w3sx-38" value="Git" style="shape=datastore;whiteSpace=wrap;html=1;strokeWidth=1;fillColor=#ED6D18;fontSize=14;fontColor=#FFFFFF;verticalAlign=top;" vertex="1" parent="nOYpQQgfcAsNFbJ2w3sx-36">
          <mxGeometry width="60" height="80" as="geometry" />
        </mxCell>
        <mxCell id="nOYpQQgfcAsNFbJ2w3sx-39" value="" style="group" vertex="1" connectable="0" parent="1">
          <mxGeometry x="759" y="700" width="120" height="80" as="geometry" />
        </mxCell>
        <mxCell id="nOYpQQgfcAsNFbJ2w3sx-40" value="MQ" style="shape=datastore;whiteSpace=wrap;html=1;strokeWidth=1;fillColor=#ED6D18;fontSize=14;fontColor=#FFFFFF;verticalAlign=top;" vertex="1" parent="nOYpQQgfcAsNFbJ2w3sx-39">
          <mxGeometry x="60" width="60" height="80" as="geometry" />
        </mxCell>
        <mxCell id="nOYpQQgfcAsNFbJ2w3sx-41" value="MQ" style="shape=datastore;whiteSpace=wrap;html=1;strokeWidth=1;fillColor=#ED6D18;fontSize=14;fontColor=#FFFFFF;verticalAlign=top;" vertex="1" parent="nOYpQQgfcAsNFbJ2w3sx-39">
          <mxGeometry width="60" height="80" as="geometry" />
        </mxCell>
        <mxCell id="nOYpQQgfcAsNFbJ2w3sx-42" value="" style="group" vertex="1" connectable="0" parent="1">
          <mxGeometry x="563" y="700" width="120" height="80" as="geometry" />
        </mxCell>
        <mxCell id="nOYpQQgfcAsNFbJ2w3sx-43" value="Redis" style="shape=datastore;whiteSpace=wrap;html=1;strokeWidth=1;fillColor=#ED6D18;fontSize=14;fontColor=#FFFFFF;verticalAlign=top;" vertex="1" parent="nOYpQQgfcAsNFbJ2w3sx-42">
          <mxGeometry x="60" width="60" height="80" as="geometry" />
        </mxCell>
        <mxCell id="nOYpQQgfcAsNFbJ2w3sx-44" value="Redis" style="shape=datastore;whiteSpace=wrap;html=1;strokeWidth=1;fillColor=#ED6D18;fontSize=14;fontColor=#FFFFFF;verticalAlign=top;" vertex="1" parent="nOYpQQgfcAsNFbJ2w3sx-42">
          <mxGeometry width="60" height="80" as="geometry" />
        </mxCell>
        <mxCell id="nOYpQQgfcAsNFbJ2w3sx-45" value="" style="group" vertex="1" connectable="0" parent="1">
          <mxGeometry x="366" y="700" width="120" height="80" as="geometry" />
        </mxCell>
        <mxCell id="nOYpQQgfcAsNFbJ2w3sx-46" value="MySQL&lt;br&gt;DB" style="shape=datastore;whiteSpace=wrap;html=1;strokeWidth=1;fillColor=#ED6D18;fontSize=14;fontColor=#FFFFFF;verticalAlign=top;" vertex="1" parent="nOYpQQgfcAsNFbJ2w3sx-45">
          <mxGeometry x="60" width="60" height="80" as="geometry" />
        </mxCell>
        <mxCell id="nOYpQQgfcAsNFbJ2w3sx-47" value="MySQL&lt;br&gt;DB" style="shape=datastore;whiteSpace=wrap;html=1;strokeWidth=1;fillColor=#ED6D18;fontSize=14;fontColor=#FFFFFF;verticalAlign=top;" vertex="1" parent="nOYpQQgfcAsNFbJ2w3sx-45">
          <mxGeometry width="60" height="80" as="geometry" />
        </mxCell>
        <mxCell id="nOYpQQgfcAsNFbJ2w3sx-48" value="" style="group" vertex="1" connectable="0" parent="1">
          <mxGeometry x="170" y="700" width="120" height="80" as="geometry" />
        </mxCell>
        <mxCell id="nOYpQQgfcAsNFbJ2w3sx-49" value="HDFS" style="shape=datastore;whiteSpace=wrap;html=1;strokeWidth=1;fillColor=#ED6D18;fontSize=14;fontColor=#FFFFFF;verticalAlign=top;" vertex="1" parent="nOYpQQgfcAsNFbJ2w3sx-48">
          <mxGeometry width="60" height="80" as="geometry" />
        </mxCell>
        <mxCell id="nOYpQQgfcAsNFbJ2w3sx-50" value="HDFS" style="shape=datastore;whiteSpace=wrap;html=1;strokeWidth=1;fillColor=#ED6D18;fontSize=14;fontColor=#FFFFFF;verticalAlign=top;" vertex="1" parent="nOYpQQgfcAsNFbJ2w3sx-48">
          <mxGeometry x="60" width="60" height="80" as="geometry" />
        </mxCell>
        <mxCell id="nOYpQQgfcAsNFbJ2w3sx-51" value="" style="shape=flexArrow;endArrow=classic;startArrow=classic;html=1;fontSize=14;fontColor=#FFFFFF;width=18.13953488372093;startSize=2.988571428571429;endSize=2.988571428571429;exitX=0.166;exitY=-0.001;exitDx=0;exitDy=0;exitPerimeter=0;entryX=0.166;entryY=1.003;entryDx=0;entryDy=0;entryPerimeter=0;fillColor=#D4D4D4;" edge="1" parent="1" source="nOYpQQgfcAsNFbJ2w3sx-7" target="nOYpQQgfcAsNFbJ2w3sx-5">
          <mxGeometry width="50" height="50" relative="1" as="geometry">
            <mxPoint x="333" y="286" as="sourcePoint" />
            <mxPoint x="333" y="270" as="targetPoint" />
          </mxGeometry>
        </mxCell>
        <mxCell id="nOYpQQgfcAsNFbJ2w3sx-52" value="" style="shape=flexArrow;endArrow=classic;startArrow=classic;html=1;fontSize=14;fontColor=#FFFFFF;width=18.13953488372093;startSize=2.988571428571429;endSize=2.988571428571429;exitX=0.166;exitY=-0.001;exitDx=0;exitDy=0;exitPerimeter=0;entryX=0.166;entryY=1.003;entryDx=0;entryDy=0;entryPerimeter=0;fillColor=#D4D4D4;" edge="1" parent="1">
          <mxGeometry width="50" height="50" relative="1" as="geometry">
            <mxPoint x="821.8400000000001" y="289.76" as="sourcePoint" />
            <mxPoint x="821.8400000000001" y="258.24" as="targetPoint" />
          </mxGeometry>
        </mxCell>
        <mxCell id="nOYpQQgfcAsNFbJ2w3sx-53" value="" style="shape=flexArrow;endArrow=classic;startArrow=classic;html=1;fontSize=14;fontColor=#FFFFFF;width=11.395348837209303;startSize=4.800000000000001;endSize=4.800000000000001;exitX=0;exitY=0.459;exitDx=0;exitDy=0;exitPerimeter=0;entryX=1.001;entryY=0.441;entryDx=0;entryDy=0;entryPerimeter=0;fillColor=#D4D4D4;" edge="1" parent="1" source="nOYpQQgfcAsNFbJ2w3sx-4" target="nOYpQQgfcAsNFbJ2w3sx-7">
          <mxGeometry width="50" height="50" relative="1" as="geometry">
            <mxPoint x="969.8400000000001" y="429.26" as="sourcePoint" />
            <mxPoint x="969.8400000000001" y="397.74" as="targetPoint" />
          </mxGeometry>
        </mxCell>
        <mxCell id="nOYpQQgfcAsNFbJ2w3sx-54" value="" style="shape=flexArrow;endArrow=classic;startArrow=classic;html=1;fontSize=14;fontColor=#FFFFFF;width=11.395348837209303;startSize=4.800000000000001;endSize=4.800000000000001;exitX=0;exitY=0.459;exitDx=0;exitDy=0;exitPerimeter=0;entryX=1.001;entryY=0.441;entryDx=0;entryDy=0;entryPerimeter=0;fillColor=#D4D4D4;" edge="1" parent="1">
          <mxGeometry width="50" height="50" relative="1" as="geometry">
            <mxPoint x="209.5" y="399.23" as="sourcePoint" />
            <mxPoint x="170.23999999999978" y="399.34000000000015" as="targetPoint" />
          </mxGeometry>
        </mxCell>
        <mxCell id="nOYpQQgfcAsNFbJ2w3sx-55" value="" style="html=1;shadow=0;dashed=0;align=center;verticalAlign=middle;shape=mxgraph.arrows2.arrow;dy=0.52;dx=22.43;direction=south;notch=0;strokeWidth=1;fillColor=#D4D4D4;fontSize=14;fontColor=#FFFFFF;" vertex="1" parent="1">
          <mxGeometry x="95" y="650" width="40" height="40" as="geometry" />
        </mxCell>
        <mxCell id="nOYpQQgfcAsNFbJ2w3sx-56" value="" style="html=1;shadow=0;dashed=0;align=center;verticalAlign=middle;shape=mxgraph.arrows2.arrow;dy=0.52;dx=22.43;direction=south;notch=0;strokeWidth=1;fillColor=#D4D4D4;fontSize=14;fontColor=#FFFFFF;" vertex="1" parent="1">
          <mxGeometry x="564.5" y="650" width="40" height="40" as="geometry" />
        </mxCell>
        <mxCell id="nOYpQQgfcAsNFbJ2w3sx-57" value="" style="html=1;shadow=0;dashed=0;align=center;verticalAlign=middle;shape=mxgraph.arrows2.arrow;dy=0.52;dx=22.43;direction=south;notch=0;strokeWidth=1;fillColor=#D4D4D4;fontSize=14;fontColor=#FFFFFF;" vertex="1" parent="1">
          <mxGeometry x="1025" y="650" width="40" height="40" as="geometry" />
        </mxCell>
        <mxCell id="nOYpQQgfcAsNFbJ2w3sx-58" value="" style="html=1;shadow=0;dashed=0;align=center;verticalAlign=middle;shape=mxgraph.arrows2.arrow;dy=0.52;dx=16.13;direction=south;notch=0;strokeWidth=1;fillColor=#D4D4D4;fontSize=14;fontColor=#FFFFFF;" vertex="1" parent="1">
          <mxGeometry x="564.5" y="530" width="40" height="30" as="geometry" />
        </mxCell>
        <mxCell id="nOYpQQgfcAsNFbJ2w3sx-59" value="" style="html=1;shadow=0;dashed=0;align=center;verticalAlign=middle;shape=mxgraph.arrows2.arrow;dy=0.52;dx=16.84;direction=south;notch=0;strokeWidth=1;fillColor=#D4D4D4;fontSize=14;fontColor=#FFFFFF;" vertex="1" parent="1">
          <mxGeometry x="564.5" y="258" width="40" height="31" as="geometry" />
        </mxCell>
        <mxCell id="nOYpQQgfcAsNFbJ2w3sx-60" value="" style="html=1;shadow=0;dashed=0;align=center;verticalAlign=middle;shape=mxgraph.arrows2.arrow;dy=0.55;dx=27.77;direction=south;notch=0;strokeWidth=1;fillColor=#D4D4D4;fontSize=14;fontColor=#FFFFFF;" vertex="1" parent="1">
          <mxGeometry x="565" y="130" width="40" height="50" as="geometry" />
        </mxCell>
      </root>
    </mxGraphModel>
  </diagram>
</mxfile>
